<svg width="81" height="78" viewBox="0 0 81 78" fill="none" xmlns="http://www.w3.org/2000/svg">
<path d="M50.7337 36.2562L48.0487 37.0481L50.7337 36.2598V36.2562ZM29.805 36.2562L32.49 37.0481L29.805 36.2598V36.2562ZM40.8337 31.5692L47.7225 36.6002L51.1387 32.3324L44.25 27.2978L40.8375 31.5692H40.8337ZM48.0487 37.5784L45.3412 45.9527L50.7187 47.5401L53.4225 39.1658L48.0487 37.5784ZM44.4487 46.5833H36.0862V51.9583H44.4487V46.5833ZM35.1975 45.9527L32.49 37.5784L27.1162 39.1658L29.82 47.5401L35.1975 45.9527ZM32.8125 36.6002L39.7012 31.5692L36.285 27.2978L29.3962 32.3324L32.8125 36.6002ZM47.7225 36.6002C47.8775 36.7132 47.9916 36.8699 48.0487 37.0481L53.4187 35.4642C53.0168 34.2188 52.2185 33.1241 51.135 32.3324L47.7225 36.6002ZM48.0487 37.0481C48.1048 37.2208 48.1048 37.4057 48.0487 37.5784L53.4187 39.1658C53.8085 37.9601 53.8085 36.67 53.4187 35.4642L48.0487 37.0481ZM44.25 27.305C43.1069 26.4685 41.7073 26.0151 40.2675 26.015V31.39C40.47 31.39 40.6687 31.4509 40.8337 31.5692L44.25 27.305ZM40.2675 26.015C38.8687 26.015 37.4625 26.445 36.2887 27.305L39.7012 31.5692C39.865 31.4504 40.0657 31.3874 40.2712 31.39V26.015H40.2675ZM45.3412 45.9527C45.2862 46.1271 45.1762 46.2846 45.0262 46.397L48.5062 50.6182C49.5262 49.8478 50.3137 48.7907 50.7187 47.5401L45.3412 45.9527ZM45.0262 46.397C44.8628 46.5201 44.6606 46.587 44.4525 46.5869V51.9619C45.96 51.9619 47.3775 51.4638 48.5062 50.6182L45.0262 46.397ZM36.0862 46.5869C35.8781 46.5867 35.6761 46.5199 35.5125 46.397L32.0325 50.6182C33.1575 51.4638 34.5787 51.9619 36.0862 51.9619V46.5869ZM35.5125 46.397C35.3629 46.2842 35.253 46.1269 35.1975 45.9527L29.82 47.5401C30.225 48.7871 31.0087 49.8478 32.0325 50.6182L35.5125 46.397ZM32.49 37.5784C32.434 37.4057 32.434 37.2244 32.49 37.0517L27.1162 35.4678C26.7265 36.6736 26.7265 37.9601 27.1162 39.1658L32.49 37.5784ZM32.49 37.0517C32.5471 36.8735 32.6612 36.7168 32.8162 36.6037L29.4 32.336C28.3167 33.1278 27.5184 34.2225 27.1162 35.4678L32.49 37.0517ZM74.9137 38.5208C74.9137 56.8317 59.4 71.6667 40.2675 71.6667V77.0417C62.5125 77.0417 80.5387 59.7915 80.5387 38.5208H74.9137ZM40.2675 71.6667C21.1387 71.6667 5.625 56.8317 5.625 38.5208H0C0 59.7915 18.0262 77.0417 40.2712 77.0417V71.6667H40.2675ZM5.625 38.5208C5.625 20.21 21.1387 5.375 40.2712 5.375V0C18.0225 0 0 17.2502 0 38.5208H5.625ZM40.2712 5.375C59.3962 5.375 74.9137 20.21 74.9137 38.5208H80.5387C80.5387 17.2502 62.5125 0 40.2675 0V5.375H40.2712Z" fill="#333333"/>
</svg>
