<svg xmlns="http://www.w3.org/2000/svg" width="12" height="12" viewBox="0 0 12 12" fill="none">
  <g clip-path="url(#clip0_291_450)">
    <path d="M4.125 7.13325C4.182 7.84875 4.7475 8.406 5.7615 8.472V9H6.2115V8.46825C7.2615 8.39475 7.875 7.83375 7.875 7.01925C7.875 6.279 7.4055 5.89725 6.56625 5.69925L6.2115 5.61525V4.1775C6.6615 4.2285 6.948 4.4745 7.017 4.815H7.806C7.749 4.12575 7.158 3.5865 6.2115 3.528V3H5.7615V3.53925C4.86525 3.627 4.254 4.16625 4.254 4.929C4.254 5.604 4.7085 6.033 5.46375 6.20925L5.7615 6.28275V7.80825C5.30025 7.7385 4.995 7.48575 4.926 7.13325H4.125ZM5.75775 5.50875C5.31525 5.406 5.07525 5.19675 5.07525 4.88175C5.07525 4.52925 5.334 4.26525 5.7615 4.188V5.508L5.75775 5.50875ZM6.27675 6.4035C6.8145 6.528 7.06275 6.72975 7.06275 7.086C7.06275 7.4925 6.75375 7.7715 6.2115 7.8225V6.3885L6.27675 6.4035Z" fill="#E7CD8A"/>
    <path d="M6 11.25C4.60761 11.25 3.27226 10.6969 2.28769 9.71231C1.30312 8.72774 0.75 7.39239 0.75 6C0.75 4.60761 1.30312 3.27226 2.28769 2.28769C3.27226 1.30312 4.60761 0.75 6 0.75C7.39239 0.75 8.72774 1.30312 9.71231 2.28769C10.6969 3.27226 11.25 4.60761 11.25 6C11.25 7.39239 10.6969 8.72774 9.71231 9.71231C8.72774 10.6969 7.39239 11.25 6 11.25ZM6 12C7.5913 12 9.11742 11.3679 10.2426 10.2426C11.3679 9.11742 12 7.5913 12 6C12 4.4087 11.3679 2.88258 10.2426 1.75736C9.11742 0.632141 7.5913 0 6 0C4.4087 0 2.88258 0.632141 1.75736 1.75736C0.632141 2.88258 0 4.4087 0 6C0 7.5913 0.632141 9.11742 1.75736 10.2426C2.88258 11.3679 4.4087 12 6 12Z" fill="#E7CD8A"/>
    <path d="M6 10.125C4.90598 10.125 3.85677 9.6904 3.08318 8.91682C2.3096 8.14323 1.875 7.09402 1.875 6C1.875 4.90598 2.3096 3.85677 3.08318 3.08318C3.85677 2.3096 4.90598 1.875 6 1.875C7.09402 1.875 8.14323 2.3096 8.91682 3.08318C9.6904 3.85677 10.125 4.90598 10.125 6C10.125 7.09402 9.6904 8.14323 8.91682 8.91682C8.14323 9.6904 7.09402 10.125 6 10.125ZM6 10.5C6.59095 10.5 7.17611 10.3836 7.72208 10.1575C8.26804 9.93131 8.76412 9.59984 9.18198 9.18198C9.59984 8.76412 9.93131 8.26804 10.1575 7.72208C10.3836 7.17611 10.5 6.59095 10.5 6C10.5 5.40905 10.3836 4.82389 10.1575 4.27792C9.93131 3.73196 9.59984 3.23588 9.18198 2.81802C8.76412 2.40016 8.26804 2.06869 7.72208 1.84254C7.17611 1.6164 6.59095 1.5 6 1.5C4.80653 1.5 3.66193 1.97411 2.81802 2.81802C1.97411 3.66193 1.5 4.80653 1.5 6C1.5 7.19347 1.97411 8.33807 2.81802 9.18198C3.66193 10.0259 4.80653 10.5 6 10.5Z" fill="#E7CD8A"/>
  </g>
  <defs>
    <clipPath id="clip0_291_450">
      <rect width="12" height="12" fill="white"/>
    </clipPath>
  </defs>
</svg>