<svg width="40" height="40" viewBox="0 0 40 40" fill="none" xmlns="http://www.w3.org/2000/svg">
<g id="iconamoon:history-duotone">
<g id="Group">
<path id="Vector" opacity="0.16" d="M20 35C28.2843 35 35 28.2843 35 20C35 11.7157 28.2843 5 20 5C11.7157 5 5 11.7157 5 20C5 28.2843 11.7157 35 20 35Z" fill="white"/>
<path id="Vector_2" d="M9.39334 30.6067C11.8474 33.0608 15.0766 34.5879 18.5305 34.928C21.9844 35.268 25.4494 34.3998 28.3349 32.4713C31.2204 30.5428 33.3479 27.6734 34.3548 24.3521C35.3617 21.0308 35.1858 17.463 33.857 14.2569C32.5281 11.0507 30.1286 8.4046 27.0674 6.76939C24.0061 5.13418 20.4726 4.6111 17.0689 5.28929C13.6652 5.96748 10.6019 7.80497 8.40122 10.4886C6.20051 13.1723 4.99849 16.536 5 20.0067V23.3333" stroke="white" stroke-width="2" stroke-linecap="round" stroke-linejoin="round"/>
<path id="Vector_3" d="M1.66699 20L5.00033 23.3333L8.33366 20M18.3337 13.3333V21.6667H26.667" stroke="white" stroke-width="2" stroke-linecap="round" stroke-linejoin="round"/>
</g>
</g>
</svg>
