<svg width="33" height="33" viewBox="0 0 33 33" fill="none" xmlns="http://www.w3.org/2000/svg">
<path id="Vector" d="M25.495 17.6283C25.3444 18.8296 24.9546 19.9886 24.3488 21.0368C23.7429 22.0851 22.9333 23.0014 21.9675 23.7316M19.9597 24.8801C17.7442 25.7947 15.2566 25.7947 13.041 24.8801M11.0332 23.7316C10.0795 23.0108 9.27788 22.1085 8.67434 21.0766C8.0708 20.0447 7.6773 18.9037 7.51649 17.7191M7.50495 15.3717C7.65567 14.1703 8.04552 13.0113 8.65149 11.963C9.25747 10.9148 10.0673 9.99852 11.0332 9.26835M13.0431 8.11991C15.2532 7.20828 17.7339 7.20646 19.9453 8.11486M21.9783 9.27628C22.9304 9.99829 23.7303 10.9014 24.3321 11.9336C24.9339 12.9658 25.3257 14.1068 25.485 15.291M7.52009 15.3681C7.69008 15.5132 7.82661 15.6934 7.9203 15.8963C8.01399 16.0992 8.06261 16.32 8.06282 16.5435C8.06302 16.767 8.01481 16.9878 7.92149 17.1909C7.82818 17.394 7.69197 17.5744 7.52226 17.7198M25.4806 17.6319C25.3109 17.487 25.1745 17.3072 25.0808 17.1047C24.9871 16.9023 24.9383 16.6819 24.9378 16.4588C24.9372 16.2357 24.9849 16.0151 25.0777 15.8122C25.1704 15.6092 25.3059 15.4287 25.4749 15.2831M11.044 23.7064C11.2519 23.635 11.4726 23.6087 11.6915 23.6293C11.9103 23.6498 12.1223 23.7167 12.3133 23.8256C12.5043 23.9344 12.6699 24.0827 12.7991 24.2606C12.9283 24.4384 13.0181 24.6417 13.0626 24.857M19.9388 24.857C19.9835 24.6419 20.0733 24.4387 20.2025 24.261C20.3317 24.0833 20.4972 23.9351 20.6881 23.8263C20.8789 23.7174 21.0908 23.6505 21.3095 23.6298C21.5282 23.6091 21.7489 23.6353 21.9567 23.7064M13.0626 8.13937C13.0184 8.35491 12.9288 8.55856 12.7998 8.73676C12.6708 8.91495 12.5052 9.06361 12.3142 9.17282C12.1232 9.28203 11.9112 9.34929 11.6921 9.37011C11.4731 9.39093 11.2522 9.36484 11.044 9.29358M21.9805 9.28637C21.7696 9.36249 21.5446 9.39189 21.3212 9.37253C21.0978 9.35317 20.8812 9.28551 20.6865 9.17425C20.4918 9.06298 20.3236 8.91075 20.1935 8.72809C20.0634 8.54542 19.9746 8.33668 19.9331 8.1163M11.46 27.9513L9.03333 28.9714L8.77379 26.7906M3.73088 17.9541L1.56449 16.3875L3.73088 14.8202M8.74567 6.19791L9.03188 3.8037L11.4852 4.83463M21.5133 4.83463L23.9674 3.8037L24.2529 6.19863M29.2677 14.8202L31.4348 16.3875L29.2684 17.9541M24.2269 26.7898L23.9674 28.9707L21.5407 27.9513M11.4794 4.88293L11.199 7.231L8.95691 6.28874M24.0431 6.28874L21.801 7.231L21.5206 4.88221M11.4794 28.1178L11.199 25.769L8.95691 26.7113M24.0431 26.7113L21.801 25.769L21.5206 28.1171M3.98033 15.0005L5.89728 16.3875L3.82749 17.8849M29.1725 17.8849L27.1027 16.3883L29.0197 15.0012M28.975 19.7305C28.3907 21.9867 27.2055 24.0422 25.5455 25.6782M19.9338 28.9202C17.6865 29.5416 15.3128 29.5416 13.0655 28.9202M7.45449 25.6782C5.79453 24.0422 4.60931 21.9867 4.02502 19.7305M4.02502 13.2688C4.60955 11.0131 5.79475 8.95812 7.45449 7.32256M13.0662 4.07981C15.3093 3.45947 17.6785 3.45823 19.9223 4.07621M25.5455 7.32256C27.2017 8.95453 28.3855 11.0042 28.9714 13.2544M19.9237 28.9101L19.5279 31.6626M13.4707 31.6626L13.0756 28.9101M7.48405 25.663L4.85121 26.717M1.84926 21.4614L4.04881 19.7319M4.04881 13.2666L1.84926 11.5371M4.85193 6.28226L7.48477 7.33698M13.0763 4.08991L13.4714 1.33595M19.5229 1.29702L19.923 4.07981M25.5462 7.324L28.1488 6.28153M31.1738 11.5191L28.9678 13.2529M28.9512 19.7319L31.15 21.4622M28.1481 26.7163L25.5152 25.6623M16.5 10.0981L14.6126 13.9234L10.393 14.5362L13.4469 17.5129L12.7259 21.7159L16.5 19.7319L20.2741 21.7167L19.5531 17.5136L22.607 14.5369L18.3874 13.9234L16.5 10.0981ZM32 16.5C32 25.0603 25.0603 32 16.5 32C7.93967 32 1 25.0603 1 16.5C1 7.93967 7.93967 1 16.5 1C25.0603 1 32 7.93967 32 16.5Z" stroke="white" stroke-width="0.5" stroke-linecap="round" stroke-linejoin="round"/>
</svg>
