<svg width="40" height="40" viewBox="0 0 40 40" fill="none" xmlns="http://www.w3.org/2000/svg">
<g id="typcn:flag-outline">
<path id="Vector" d="M30.638 7.19664C30.3334 7.07047 29.9982 7.03748 29.6748 7.10186C29.3514 7.16624 29.0544 7.32509 28.8213 7.55831C27.8066 8.56976 26.4324 9.13771 24.9997 9.13771C23.567 9.13771 22.1927 8.56976 21.178 7.55831C19.5378 5.92278 17.316 5.00433 14.9997 5.00433C12.6834 5.00433 10.4616 5.92278 8.82134 7.55831C8.66635 7.71287 8.54341 7.89654 8.45961 8.09876C8.37581 8.30097 8.33278 8.51775 8.33301 8.73664V30.4033C8.33301 30.8453 8.5086 31.2693 8.82116 31.5818C9.13373 31.8944 9.55765 32.07 9.99968 32.07C10.4417 32.07 10.8656 31.8944 11.1782 31.5818C11.4907 31.2693 11.6663 30.8453 11.6663 30.4033V22.815C12.7067 22.0024 14.0081 21.5979 15.3258 21.6777C16.6435 21.7575 17.8867 22.3161 18.8213 23.2483C20.4616 24.8838 22.6834 25.8023 24.9997 25.8023C27.316 25.8023 29.5378 24.8838 31.178 23.2483C31.4906 22.9358 31.6663 22.512 31.6663 22.07V8.73664C31.6664 8.40703 31.5688 8.0848 31.3857 7.81069C31.2027 7.53657 30.9425 7.32288 30.638 7.19664ZM18.8213 9.91498C20.0435 11.1331 21.5984 11.963 23.2906 12.3005C24.9829 12.6379 26.7371 12.4678 28.333 11.8116V15.6633C27.1371 16.4203 25.7194 16.7485 24.3125 16.5941C22.9056 16.4396 21.5929 15.8117 20.5897 14.8133C18.1763 12.4016 14.593 11.9083 11.6663 13.2683V9.48164C12.7066 8.66869 14.0081 8.26403 15.3259 8.34384C16.6437 8.42365 17.8868 8.98243 18.8213 9.91498ZM21.178 20.89C20.3669 20.0788 19.4036 19.4356 18.3434 18.9975C17.2831 18.5593 16.1469 18.3347 14.9997 18.3366C13.8647 18.3366 12.7313 18.555 11.6663 18.9933V15.1416C12.8623 14.3846 14.2799 14.0564 15.6868 14.2109C17.0938 14.3653 18.4065 14.9932 19.4097 15.9916C20.1435 16.7257 21.015 17.3077 21.9743 17.7041C22.9336 18.1005 23.9617 18.3036 24.9997 18.3016C26.1447 18.3016 27.2763 18.0283 28.333 17.5366V21.3233C27.2926 22.1359 25.9912 22.5404 24.6735 22.4606C23.3558 22.3808 22.1127 21.8222 21.178 20.89Z" fill="#747373"/>
</g>
</svg>
